<?xml version="1.0" standalone="no"?>
<!DOCTYPE svg PUBLIC "-//W3C//DTD SVG 20010904//EN"
 "http://www.w3.org/TR/2001/REC-SVG-20010904/DTD/svg10.dtd">
<svg version="1.0" xmlns="http://www.w3.org/2000/svg"
 width="700.000000pt" height="700.000000pt" viewBox="0 0 700.000000 700.000000"
 preserveAspectRatio="xMidYMid meet">
<metadata>
Created by potrace 1.11, written by Peter Selinger 2001-2013
</metadata>
<g transform="translate(0.000000,700.000000) scale(0.100000,-0.100000)"
fill="#000000" stroke="none">
<path d="M6225 6983 c-28 -10 -65 -29 -83 -42 -18 -13 -195 -240 -394 -505
-198 -264 -362 -482 -363 -484 -2 -2 -1134 -3 -2516 -4 l-2512 0 -55 -24
c-123 -54 -159 -134 -156 -345 2 -132 18 -184 77 -243 72 -71 107 -76 612 -76
l71 0 0 -1284 c0 -1208 1 -1285 17 -1310 10 -15 34 -34 52 -43 l35 -17 0 -158
c0 -144 -2 -158 -17 -158 -30 0 -74 -43 -81 -80 -4 -19 -7 -386 -7 -815 1
-583 5 -795 14 -838 45 -208 184 -388 370 -479 170 -84 -7 -78 2206 -75 1084
1 1983 6 2000 10 108 29 247 106 330 184 82 77 152 197 186 318 l23 80 0 2332
1 2333 35 0 c622 1 628 2 703 73 65 62 80 112 80 262 0 72 -5 148 -11 170 -17
60 -64 118 -124 151 l-53 29 -195 2 c-107 1 -227 3 -267 3 l-71 0 228 304
c256 340 268 364 255 479 -11 106 -68 188 -161 233 -71 35 -160 41 -229 17z"/>
</g>
</svg>
